<svg width="112" height="84" viewBox="0 0 112 84" fill="none" xmlns="http://www.w3.org/2000/svg">
<path opacity="0.01" fill-rule="evenodd" clip-rule="evenodd" d="M0 0H74.6541V18.0429L69.9363 23.56L68.7804 60.8078L73.3493 67.2836L74.6541 84H0V0Z" fill="#D8D8D8"/>
<mask id="mask0" mask-type="alpha" maskUnits="userSpaceOnUse" x="0" y="0" width="75" height="84">
<path fill-rule="evenodd" clip-rule="evenodd" d="M0 0H74.6541V18.0429L69.9363 23.56L68.7804 60.8078L73.3493 67.2836L74.6541 84H0V0Z" fill="white"/>
</mask>
<g mask="url(#mask0)">
<path d="M78.2324 41.4545C78.2324 62.4055 61.4812 79.3091 40.9162 79.3091C20.3513 79.3091 3.6 62.4055 3.6 41.4545C3.6 20.5035 20.3513 3.6 40.9162 3.6C61.4812 3.6 78.2324 20.5035 78.2324 41.4545Z" stroke="#2D2D2D" stroke-width="7.2"/>
</g>
<path fill-rule="evenodd" clip-rule="evenodd" d="M38.6141 37.2191C37.8978 37.2191 37.1994 37.2191 36.6264 37.2735V36.8384C37.3069 36.8202 37.6829 36.6571 37.7367 36.222C37.8441 35.2067 37.8799 33.7745 37.8799 31.055C37.8799 28.6982 37.8441 27.266 37.7367 26.2507C37.6829 25.8156 37.3069 25.6525 36.6085 25.6343V25.1992C37.2173 25.2536 37.8978 25.2536 38.6141 25.2536L38.9188 25.2534C39.523 25.2525 40.0954 25.2458 40.6019 25.1992V25.6343C39.9214 25.6525 39.5453 25.8156 39.4916 26.2507C39.3842 27.266 39.3484 28.6982 39.3484 31.055C39.3484 35.1904 39.5036 35.7899 39.7851 36.0871L39.8169 36.119C39.8277 36.1293 39.8387 36.1394 39.8498 36.1494C40.1363 36.4032 40.6019 36.512 41.3003 36.512C42.3569 36.512 42.7687 36.4758 43.1806 36.4032C43.6104 36.3307 43.8969 36.095 44.1655 35.2792L44.8102 35.243C44.6849 35.8775 44.5953 36.5483 44.5774 37.2372C43.2209 37.2236 41.7737 37.2202 40.2132 37.2194L39.1559 37.2191L38.6141 37.2191ZM51.0779 37.0559C50.5407 37.346 50.093 37.4729 49.2513 37.4729C47.0308 37.4729 45.7951 36.1132 45.7951 33.992C45.7951 31.4358 47.1919 29.7135 49.4304 29.7135C51.0063 29.7135 52.1524 31.0188 52.1524 33.1218C52.1524 33.3756 51.7047 33.6294 51.06 33.6113C50.5586 33.5986 50.1186 33.5948 49.5988 33.5937L49.1303 33.5932L48.8753 33.5932C48.3918 33.5932 48.009 33.6034 47.6363 33.6161L47.2636 33.6294C47.3531 35.4061 48.1948 36.512 49.9855 36.512C50.5944 36.512 51.2749 36.2582 51.8121 35.8775L51.8838 35.95L51.6868 36.7296L51.0779 37.0559ZM48.8215 33.0312C48.3022 33.0312 47.7829 33.013 47.2815 32.9949C47.371 31.5808 47.9978 30.493 48.9827 30.493C50.0214 30.493 50.6839 31.5627 50.6839 32.7955C50.2004 32.9586 49.5737 33.0312 48.8215 33.0312ZM58.1873 34.8622C58.1873 36.4758 56.7726 37.4729 55.1967 37.4729C54.5341 37.4729 53.8357 37.2735 53.2448 36.8927C53.3701 36.4758 53.4596 36.0044 53.4955 35.5874L54.0148 35.5512C54.0148 36.0407 54.1939 36.367 54.3908 36.4939C54.749 36.7296 55.1072 36.8202 55.519 36.8202C56.2532 36.8202 56.88 36.3489 56.88 35.5149C56.88 34.8804 56.5577 34.4634 55.6623 34.1914C54.3729 33.7926 53.7283 33.0855 53.7283 31.9797C53.7283 30.7831 54.7669 29.7135 56.4323 29.7135C57.1845 29.7135 57.8829 30.0035 58.241 30.4024C58.1157 30.8012 58.0261 31.2363 57.9903 31.6533H57.471C57.471 31.327 57.4173 31.0188 57.2382 30.8375C56.9337 30.5293 56.5935 30.3843 56.0742 30.3843C55.3937 30.3843 54.9639 30.8919 54.9639 31.472C54.9639 32.2335 55.3579 32.5961 56.2712 32.9043C57.7396 33.3938 58.1873 33.9739 58.1873 34.8622ZM68.5559 37.4729C68.8961 37.4729 69.1826 37.3822 69.5229 37.1828L69.9168 36.9471L70.0064 36.4395L69.9347 36.367C69.7199 36.4758 69.5766 36.4939 69.3617 36.4939C69.0573 36.4939 68.6812 36.1857 68.6633 35.4786C68.6454 34.4634 68.6633 33.013 68.7349 31.9071C68.8245 30.6199 68.1619 29.7135 66.4069 29.7135C65.6369 29.7135 64.8848 29.931 64.1326 30.5655C64.1147 30.9825 64.0431 31.5989 63.9715 32.0703L64.5087 32.034C64.5982 30.9463 65.3862 30.6199 65.9771 30.6199C67.0337 30.6199 67.3919 31.2182 67.3381 32.1428C67.3381 32.3162 67.3331 32.4794 67.3283 32.6323V32.6324V32.6325V32.6325V32.6326V32.6326V32.6327V32.6327V32.6328V32.6328V32.6329V32.6329V32.6329V32.633V32.633V32.633V32.633V32.6331V32.6331V32.6331V32.6331V32.6332C67.3242 32.7677 67.3202 32.8943 67.3202 33.013C66.8546 33.1762 66.1383 33.3575 65.5653 33.4481C64.3834 33.6476 63.4342 34.3184 63.4342 35.4243C63.4342 36.5302 64.3654 37.4729 65.3146 37.4729C66.2279 37.4729 66.98 36.8927 67.3919 36.2945C67.5888 37.1828 67.9828 37.4729 68.5559 37.4729ZM64.9743 35.5149C64.9743 36.0769 65.3862 36.5302 65.9234 36.5302C66.6755 36.5302 67.2844 35.7506 67.2844 34.8804L67.2848 34.6136C67.2859 34.3757 67.2895 34.0982 67.3023 33.7745C65.9055 33.8107 64.9743 34.4634 64.9743 35.5149ZM74.4833 37.4366C75.0922 35.5874 75.898 33.575 77.0441 31.2182C77.3306 30.6381 77.6351 30.3661 78.2977 30.3299V29.8948C77.653 29.9528 76.802 29.9644 76.0015 29.9667L75.4145 29.9673V30.4024C75.9338 30.4386 76.1666 30.5474 76.1666 30.7831C76.1666 31.2363 75.8085 32.2879 74.5191 35.0254C73.7133 33.1399 72.9432 31.0369 72.603 29.9854L72.5314 29.931C71.8151 29.9854 70.9555 30.0217 70.0422 30.0217V30.4568C70.7406 30.5293 71.1525 30.8919 71.5106 31.5083C72.2449 32.7592 72.8895 34.3546 73.9998 37.4366H74.4833ZM85.6219 33.5569C85.6219 35.9319 84.046 37.4729 82.0225 37.4729C79.9273 37.4729 78.6379 36.095 78.6379 33.6294C78.6379 31.2545 80.2138 29.7135 82.2374 29.7135C84.3326 29.7135 85.6219 31.0913 85.6219 33.5569ZM82.112 36.7114C80.9122 36.7114 80.178 35.3336 80.178 33.4663C80.178 31.4176 81.0196 30.4749 82.1478 30.4749C83.3476 30.4749 84.0819 31.8527 84.0819 33.7201C84.0819 35.7687 83.2402 36.7114 82.112 36.7114ZM92.1761 37.0559C91.6389 37.346 91.1912 37.4729 90.3496 37.4729C88.1648 37.4729 86.8934 36.0225 86.8934 33.9014C86.8934 31.4176 88.6125 29.7135 90.8689 29.7135C91.8001 29.7135 92.588 29.9673 93.1611 30.3661C92.9999 30.7831 92.8745 31.3089 92.785 31.7621L92.2478 31.6896C92.2657 31.3814 92.194 31.2001 92.015 31.0369C91.7285 30.765 91.227 30.5474 90.4749 30.5474C89.3109 30.5474 88.3618 31.6533 88.3618 33.3575C88.3618 35.2973 89.3288 36.512 91.0838 36.512C91.6926 36.512 92.3731 36.2582 92.9104 35.8775L92.982 35.95L92.785 36.7296L92.1761 37.0559ZM99.3034 37.4729C99.6437 37.4729 99.9302 37.3822 100.27 37.1828L100.664 36.9471L100.754 36.4395L100.682 36.367C100.467 36.4758 100.324 36.4939 100.109 36.4939C99.8048 36.4939 99.4288 36.1857 99.4109 35.4786C99.393 34.4634 99.4109 33.013 99.4825 31.9071C99.572 30.6199 98.9094 29.7135 97.1545 29.7135C96.3845 29.7135 95.6323 29.931 94.8802 30.5655C94.8623 30.9825 94.7907 31.5989 94.719 32.0703L95.2563 32.034C95.3458 30.9463 96.1338 30.6199 96.7247 30.6199C97.7813 30.6199 98.1394 31.2182 98.0857 32.1428C98.0857 32.3161 98.0806 32.4792 98.0759 32.632L98.0759 32.6323C98.0717 32.7672 98.0678 32.8941 98.0678 33.013C97.6022 33.1762 96.8859 33.3575 96.3128 33.4481C95.1309 33.6476 94.1818 34.3184 94.1818 35.4243C94.1818 36.5302 95.113 37.4729 96.0621 37.4729C96.9754 37.4729 97.7275 36.8927 98.1394 36.2945C98.3364 37.1828 98.7304 37.4729 99.3034 37.4729ZM95.7219 35.5149C95.7219 36.0769 96.1338 36.5302 96.671 36.5302C97.4231 36.5302 98.032 35.7506 98.032 34.8804L98.0324 34.6136C98.0334 34.3757 98.0371 34.0982 98.0499 33.7745C96.6531 33.8107 95.7219 34.4634 95.7219 35.5149ZM104.139 37.4729C104.855 37.4729 105.464 37.2735 106.019 36.7658L106.18 36.0769L106.108 36.0407C105.625 36.3851 105.213 36.512 104.747 36.512C104.371 36.512 103.942 36.3126 103.924 35.7143C103.87 34.1371 103.87 32.1428 103.924 30.7287H106.073C106.09 30.4749 106.126 30.2211 106.162 30.0398H103.924C103.942 29.4234 103.995 28.6801 104.085 28.1362L103.458 28.2087C103.154 29.0245 102.724 29.6953 102.276 29.9673C101.99 30.1304 101.739 30.2211 101.417 30.2936L101.345 30.7468H102.527C102.545 32.2516 102.527 34.1189 102.455 35.8412C102.419 36.8021 102.992 37.4729 104.139 37.4729ZM111.946 34.8622C111.946 36.4758 110.532 37.4729 108.956 37.4729C108.293 37.4729 107.595 37.2735 107.004 36.8927C107.129 36.4758 107.219 36.0044 107.254 35.5874L107.774 35.5512C107.774 36.0407 107.953 36.367 108.15 36.4939C108.508 36.7296 108.866 36.8202 109.278 36.8202C110.012 36.8202 110.639 36.3489 110.639 35.5149C110.639 34.8804 110.317 34.4634 109.421 34.1914C108.132 33.7926 107.487 33.0855 107.487 31.9797C107.487 30.7831 108.526 29.7135 110.191 29.7135C110.943 29.7135 111.642 30.0035 112 30.4024C111.875 30.8012 111.785 31.2363 111.749 31.6533H111.23C111.23 31.327 111.176 31.0188 110.997 30.8375C110.693 30.5293 110.352 30.3843 109.833 30.3843C109.153 30.3843 108.723 30.8919 108.723 31.472C108.723 32.2335 109.117 32.5961 110.03 32.9043C111.499 33.3938 111.946 33.9739 111.946 34.8622ZM42.5359 55.6024C43.2164 55.3848 43.7716 55.3123 44.8281 55.3123V54.8772C44.2014 54.8591 43.8611 54.6234 43.7357 54.1883C43.5925 53.6807 43.5388 52.611 43.5388 49.0032L43.5388 48.745L43.5393 48.251C43.5445 44.9746 43.5892 43.7111 43.7895 42.4948L43.7357 42.4041C42.912 42.6217 42.0166 42.6942 40.8168 42.7123V43.1655C41.7122 43.2018 42.0524 43.4012 42.1061 43.8545C42.2075 44.6066 42.2451 45.4554 42.2491 47.8749L42.2494 48.3325C41.9271 47.988 41.3361 47.843 40.7093 47.843C38.6858 47.843 36.895 49.529 36.895 52.3028C36.895 54.2971 38.0411 55.6024 39.5991 55.6024C40.6198 55.6024 41.5868 54.9679 42.2852 53.7532C42.321 54.7503 42.3748 55.0766 42.4643 55.5299L42.5359 55.6024ZM38.4351 51.9765C38.4351 53.5538 39.026 54.569 40.1005 54.569C41.2108 54.569 42.2494 53.2818 42.2494 50.7255V50.4899C42.2494 49.3658 41.5331 48.6225 40.4586 48.6225C39.223 48.6225 38.4351 49.8191 38.4351 51.9765ZM49.1618 55.6024C50.0035 55.6024 50.4511 55.4755 50.9884 55.1854L51.5972 54.8591L51.7942 54.0795L51.7226 54.007C51.1854 54.3877 50.5049 54.6415 49.896 54.6415C48.1052 54.6415 47.2636 53.5356 47.174 51.7589L47.5467 51.7456C47.9194 51.7329 48.3022 51.7227 48.7857 51.7227L49.0408 51.7227L49.5092 51.7232C50.0291 51.7243 50.4691 51.7281 50.9705 51.7408C51.6151 51.7589 52.0628 51.5051 52.0628 51.2513C52.0628 49.1483 50.9167 47.843 49.3409 47.843C47.1024 47.843 45.7056 49.5653 45.7056 52.1215C45.7056 54.2427 46.9412 55.6024 49.1618 55.6024ZM47.1919 51.1244C47.6934 51.1425 48.2127 51.1607 48.732 51.1607C49.4841 51.1607 50.1109 51.0881 50.5944 50.925C50.5944 49.6922 49.9318 48.6225 48.8932 48.6225C47.9082 48.6225 47.2815 49.7103 47.1919 51.1244ZM60.9272 54.9679C60.2288 54.9497 59.8527 54.7866 59.799 54.3514C59.6992 53.4592 59.6612 52.2231 59.6563 50.0769L59.6557 49.5653C59.9934 49.5342 60.2522 49.5297 60.6124 49.5291L60.8018 49.529C61.6435 49.529 61.93 49.5471 62.1628 49.6196C62.5747 49.7466 62.6821 50.1273 62.6284 50.9794H63.2552C63.3268 49.7647 63.4342 48.7132 63.5596 47.6254H62.9328C62.8433 48.3506 62.5926 48.6225 62.1807 48.7494C61.9616 48.8177 61.6949 48.8378 60.9477 48.8399L60.8018 48.8401C60.3362 48.8401 60.0497 48.8401 59.6557 48.8038C59.6557 46.8821 59.6736 45.5768 59.7453 44.1264L60.0483 44.1172H60.0483H60.0484H60.0484H60.0484C60.5206 44.1026 60.9237 44.0902 61.339 44.0902C62.0374 44.0902 62.5568 44.1264 63.1119 44.2171C63.5417 44.2896 63.7566 44.6159 63.5954 45.5768L64.2222 45.5405C64.2938 44.8879 64.4192 44.072 64.6162 43.2562C62.4006 43.3589 61.2392 43.3808 59.2766 43.3829L58.9215 43.3831C58.2052 43.3831 57.5247 43.3831 56.9158 43.3287V43.7638C57.6142 43.782 57.9903 43.9451 58.044 44.3802C58.1515 45.3955 58.1873 46.8277 58.1873 49.1845C58.1873 51.904 58.1515 53.3362 58.044 54.3514C57.9903 54.7866 57.6142 54.9497 56.9337 54.9679V55.403C57.5247 55.3486 58.2052 55.3486 58.9215 55.3486C59.6378 55.3486 60.3183 55.3486 60.9272 55.403V54.9679ZM67.7321 54.3514C67.7858 54.7866 68.2156 54.9497 68.914 54.9679V55.403C68.3051 55.3486 67.5888 55.3486 66.9442 55.3486C66.2995 55.3486 65.5832 55.3486 64.9922 55.403V54.9679C65.6727 54.9497 66.1025 54.7866 66.1562 54.3514C66.2637 53.3362 66.2995 52.8104 66.2995 51.7227C66.2995 50.9068 66.2816 50.0185 66.192 49.2752C66.1204 48.7313 65.7623 48.6407 64.8669 48.6044V48.1512C65.8876 48.133 66.5144 48.0605 67.3381 47.843L67.3919 47.9336C67.4456 48.3143 67.4814 48.8401 67.5172 49.4021C67.8395 48.4956 68.4842 47.843 69.4333 47.843C69.8452 47.843 70.078 47.9336 70.275 48.1512V48.2237L69.9347 49.529H69.8631C69.6124 49.2933 69.2722 49.1664 68.8782 49.1664C68.0903 49.1664 67.5888 49.6378 67.5888 51.904C67.5888 52.611 67.6426 53.5538 67.7321 54.3514ZM76.095 55.6024C76.4353 55.6024 76.7218 55.5117 77.062 55.3123L77.456 55.0766L77.5455 54.569L77.4739 54.4965C77.259 54.6053 77.1157 54.6234 76.9009 54.6234C76.5964 54.6234 76.2204 54.3152 76.2025 53.6081C76.1845 52.5929 76.2025 51.1425 76.2741 50.0366C76.3636 48.7494 75.701 47.843 73.9461 47.843C73.176 47.843 72.4239 48.0605 71.6718 48.695C71.6539 49.112 71.5823 49.7284 71.5106 50.1998L72.0479 50.1635C72.1374 49.0758 72.9253 48.7494 73.5163 48.7494C74.5729 48.7494 74.931 49.3477 74.8773 50.2723C74.8773 50.4456 74.8722 50.6087 74.8675 50.7615L74.8675 50.7618C74.8633 50.8967 74.8594 51.0236 74.8594 51.1425C74.3938 51.3057 73.6775 51.487 73.1044 51.5776C71.9225 51.7771 70.9734 52.4479 70.9734 53.5538C70.9734 54.6597 71.9046 55.6024 72.8537 55.6024C73.767 55.6024 74.5191 55.0222 74.931 54.424C75.128 55.3123 75.522 55.6024 76.095 55.6024ZM72.5135 53.6444C72.5135 54.2064 72.9253 54.6597 73.4626 54.6597C74.2147 54.6597 74.8236 53.8801 74.8236 53.0099L74.824 52.7431C74.825 52.5052 74.8287 52.2277 74.8415 51.904C73.4447 51.9402 72.5135 52.5929 72.5135 53.6444ZM86.6785 54.9679C85.998 54.9497 85.5503 54.7866 85.5324 54.3514C85.4787 53.3362 85.4787 51.8314 85.5145 50.2542C85.5503 48.7676 84.637 47.843 83.079 47.843C81.9508 47.843 81.0554 48.6044 80.751 49.6922C80.7152 49.0214 80.6615 48.3868 80.6078 47.9336L80.554 47.843C79.7303 48.0605 79.1035 48.133 78.0828 48.1512V48.6044C78.9781 48.6407 79.3363 48.7313 79.4079 49.2752C79.4975 50.0185 79.5154 50.9068 79.5154 51.7227C79.5154 52.8104 79.4796 53.3362 79.3721 54.3514C79.3184 54.7866 78.8886 54.9497 78.2081 54.9679V55.403C78.7991 55.3486 79.5154 55.3486 80.1601 55.3486C80.8047 55.3486 81.521 55.3486 82.1299 55.403V54.9679C81.4315 54.9497 81.0017 54.7866 80.948 54.3514C80.8585 53.5538 80.8047 52.611 80.8047 51.904C80.8047 49.8735 81.7538 48.9489 82.5955 48.9489C83.6162 48.9489 84.2251 49.529 84.2072 51.0519C84.1893 53.0824 84.1535 54.4602 84.0281 55.3123L84.0639 55.3848C84.3326 55.3486 84.6191 55.3486 84.9235 55.3486C85.5682 55.3486 86.0875 55.3486 86.6785 55.403V54.9679ZM92.7134 55.1854C92.1761 55.4755 91.7285 55.6024 90.8868 55.6024C88.702 55.6024 87.4306 54.152 87.4306 52.0309C87.4306 49.5471 89.1497 47.843 91.4061 47.843C92.3373 47.843 93.1253 48.0968 93.6983 48.4956C93.5371 48.9126 93.4118 49.4384 93.3222 49.8916L92.785 49.8191C92.8029 49.5109 92.7313 49.3296 92.5522 49.1664C92.2657 48.8945 91.7643 48.6769 91.0121 48.6769C89.8481 48.6769 88.899 49.7828 88.899 51.487C88.899 53.4268 89.8661 54.6415 91.621 54.6415C92.2299 54.6415 92.9104 54.3877 93.4476 54.007L93.5192 54.0795L93.3222 54.8591L92.7134 55.1854ZM98.1215 55.6024C98.9632 55.6024 99.4109 55.4755 99.9481 55.1854L100.557 54.8591L100.754 54.0795L100.682 54.007C100.145 54.3877 99.4646 54.6415 98.8557 54.6415C97.065 54.6415 96.2233 53.5356 96.1338 51.7589L96.5065 51.7456C96.8792 51.7329 97.2619 51.7227 97.7454 51.7227L98.0005 51.7227L98.4689 51.7232C98.9888 51.7243 99.4288 51.7281 99.9302 51.7408C100.575 51.7589 101.023 51.5051 101.023 51.2513C101.023 49.1483 99.8765 47.843 98.3006 47.843C96.0621 47.843 94.6653 49.5653 94.6653 52.1215C94.6653 54.2427 95.901 55.6024 98.1215 55.6024ZM96.1517 51.1244C96.6531 51.1425 97.1724 51.1607 97.6917 51.1607C98.4439 51.1607 99.0706 51.0881 99.5541 50.925C99.5541 49.6922 98.8915 48.6225 97.8529 48.6225C96.868 48.6225 96.2412 49.7103 96.1517 51.1244Z" fill="#2D2D2D"/>
</svg>
