<svg width="291" height="289" viewBox="0 0 291 289" fill="none" xmlns="http://www.w3.org/2000/svg">
<mask id="mask0" mask-type="alpha" maskUnits="userSpaceOnUse" x="0" y="0" width="291" height="289">
<path d="M40.5 0H146H169.5L196.5 8L184.5 35L182 40.5L248.5 116H290.5V176L290 179L289.5 180L281 227L199.5 288.5H126L86.5 284L0.5 259.5V131.5L3 106.5L40.5 0Z" fill="black"/>
</mask>
<g mask="url(#mask0)">
<path d="M276.503 144.267C276.503 216.151 217.966 274.527 145.633 274.527C73.3001 274.527 14.7638 216.151 14.7638 144.267C14.7638 72.3818 73.3001 14.0065 145.633 14.0065C217.966 14.0065 276.503 72.3818 276.503 144.267Z" stroke="white" stroke-width="28.1405"/>
</g>
<mask id="mask1" mask-type="alpha" maskUnits="userSpaceOnUse" x="0" y="116" width="291" height="172">
<path d="M0.5 227V116H290.5V173.5L290 175L288 191.5L257 287.5H150.5H118.5L61.5 279L0.5 227Z" fill="black"/>
</mask>
<g mask="url(#mask1)">
<path d="M276.503 143.267C276.503 215.151 217.966 273.527 145.633 273.527C73.3001 273.527 14.7638 215.151 14.7638 143.267C14.7638 71.3818 73.3001 13.0065 145.633 13.0065C217.966 13.0065 276.503 71.3818 276.503 143.267Z" stroke="#2D2D2D" stroke-width="28.1405"/>
</g>
<ellipse cx="269.377" cy="65.7624" rx="13.4665" ry="13.4257" fill="white"/>
</svg>
